<svg width="23" height="35" viewBox="0 0 23 35" fill="none" xmlns="http://www.w3.org/2000/svg">
<g clip-path="url(#clip0_14_10)">
<path d="M12.0528 0.0300845C12.5759 0.0902407 13.1367 0.251569 13.6086 0.478522C14.8812 1.09102 15.736 2.19024 16.0191 3.58204L16.0838 3.89649V10.9375C16.0838 17.6422 16.0811 17.9895 16.0353 18.2246C15.6443 20.166 13.9995 21.6699 12.0123 21.9024C11.1306 22.0035 10.203 21.8449 9.38335 21.4484C8.10797 20.8305 7.25592 19.7285 6.97819 18.3395L6.91618 18.0332V10.9922C6.91618 4.29844 6.91887 3.94024 6.96471 3.70508C7.27749 2.13008 8.46389 0.790241 10.0224 0.248834C10.6345 0.0355532 11.3921 -0.0464781 12.0528 0.0300845Z" fill="white"/>
<path d="M22.1884 13.1141C22.6144 13.2289 22.8948 13.5406 22.9757 13.9863C22.9946 14.0902 23 14.8395 22.9919 16.2805C22.9838 18.0524 22.973 18.4816 22.9353 18.7988C22.7627 20.2699 22.458 21.3363 21.881 22.4902C21.3849 23.4774 20.8564 24.2129 20.0744 25.0059C18.6481 26.4496 16.7957 27.4832 14.6278 28.041C14.315 28.1203 14.0049 28.1941 13.9321 28.2051L13.8054 28.2242V30.5594V32.8945H15.5769C17.5102 32.8945 17.5803 32.9 17.8715 33.0504C18.0576 33.1461 18.2895 33.3977 18.3461 33.5672C18.489 33.991 18.249 34.5434 17.7987 34.8332C17.521 35.0137 17.9848 35 11.4865 35C5.07726 35 5.46014 35.0082 5.15276 34.8524C4.98019 34.7621 4.76448 34.5188 4.68629 34.3219C4.63505 34.1879 4.62427 34.1168 4.62427 33.8242C4.62427 33.4961 4.62697 33.4742 4.71055 33.2992C4.80762 33.0914 4.98019 32.9 5.15545 32.8098C5.41161 32.6785 5.42509 32.6758 7.36647 32.6758H9.19461V30.3406C9.19461 28.1395 9.19191 28.0027 9.14607 27.9891C9.12181 27.9836 9.05709 27.9699 9.00586 27.959C7.91114 27.7484 6.48746 27.218 5.46554 26.6356C2.53189 24.9703 0.671399 22.3508 0.151 19.1543C0.0215746 18.3668 0.0134855 18.1918 0.0134855 16.0098V13.9316L0.0755019 13.7731C0.245373 13.3492 0.58781 13.1086 1.06507 13.0785C1.46143 13.0512 1.76612 13.166 2.00879 13.4313C2.09508 13.5242 2.17867 13.65 2.21372 13.7457L2.27843 13.9043L2.29461 16.0508C2.31079 18.066 2.32427 18.375 2.39977 18.9219C2.6694 20.8496 3.52415 22.5586 4.86155 23.8274C6.31219 25.2082 8.17538 26.0422 10.3945 26.3102C10.7882 26.3566 12.2118 26.3566 12.6055 26.3102C14.3932 26.0941 15.9841 25.4981 17.2837 24.5547C19.1253 23.2176 20.2794 21.268 20.6002 18.9492C20.6757 18.4188 20.6892 18.0551 20.7054 16.0508L20.7216 13.9043L20.7863 13.7457C20.9049 13.4422 21.2204 13.177 21.5467 13.1004C21.7138 13.0594 22.0185 13.0676 22.1884 13.1141Z" fill="white"/>
</g>
<defs>
<clipPath id="clip0_14_10">
<rect width="23" height="35" fill="white" transform="matrix(-1 0 0 1 23 0)"/>
</clipPath>
</defs>
</svg>
