<svg width="54" height="64" viewBox="0 0 54 64" fill="none" xmlns="http://www.w3.org/2000/svg">
<path d="M49.5225 5L18.5226 0V32.5C13.931 31.8499 -0.633445 35.4198 0.0213893 47C0.676224 58.5802 12.3002 59.7213 16.0226 60C19.7449 60.2787 29.5237 58.5 31.5225 53C33.5214 47.5 31.5225 44 31.5225 43V17L49.5225 20V5Z" fill="#0C1027"/>
<path d="M53.5225 8L22.5226 3V35.5C17.931 34.8499 3.36655 38.4198 4.02139 50C4.67622 61.5802 16.3002 62.7213 20.0226 63C23.7449 63.2787 33.5237 61.5 35.5225 56C37.5214 50.5 35.5225 47 35.5225 46V20L53.5225 23V8Z" fill="url(#paint0_linear_15_56)"/>
<defs>
<linearGradient id="paint0_linear_15_56" x1="9.52136" y1="11" x2="46.0214" y2="63" gradientUnits="userSpaceOnUse">
<stop stop-color="#482FB4"/>
<stop offset="1" stop-color="#AD60D0"/>
</linearGradient>
</defs>
</svg>
