<svg width="149" height="128" viewBox="0 0 149 128" fill="none" xmlns="http://www.w3.org/2000/svg">
<path d="M148.001 72L117.001 67V99.5C112.41 98.8499 97.8452 102.42 98.5 114C99.1549 125.58 110.779 126.721 114.501 127C118.224 127.279 128.002 125.5 130.001 120C132 114.5 130.001 111 130.001 110V84L148.001 87V72Z" fill="url(#paint0_linear_2_33)"/>
<path d="M63.5 0.500061C93.0001 0.500061 124 27.5001 124 64.5001L113.5 62.583V97C101.449 99.2695 96.2391 102.583 95.5 115C95.5 115 82.5 124.5 61.5 125.5C40.5 126.5 2.17473e-05 105.5 0 64.5001C-2.17473e-05 23.5 33.9999 0.500061 63.5 0.500061Z" fill="url(#paint1_linear_2_33)"/>
<rect x="63.3682" y="104" width="2" height="6" rx="1" transform="rotate(23.247 63.3682 104)" fill="white"/>
<rect x="56.3682" y="105" width="2" height="6" rx="1" transform="rotate(23.247 56.3682 105)" fill="white"/>
<rect x="50.3682" y="105" width="2" height="6" rx="1" transform="rotate(23.247 50.3682 105)" fill="white"/>
<rect x="44.3682" y="102" width="2" height="6" rx="1" transform="rotate(23.247 44.3682 102)" fill="white"/>
<rect x="39.3682" y="98" width="2" height="6" rx="1" transform="rotate(23.247 39.3682 98)" fill="white"/>
<circle cx="62" cy="63" r="31" fill="#0C1027"/>
<circle cx="62" cy="63" r="24" fill="#E5EB2F"/>
<path d="M62 59.5275V68.5286C62 68.5286 72.5021 71.7415 75.5027 73.0292C78.5033 74.3168 82.9293 70.6025 84.5046 67.0285C86.2257 63.1237 84.6349 58.7831 84.0046 57.5273C83.3743 56.2716 82.3169 55.3853 80.5038 55.027C78.6908 54.6687 69.4216 57.9653 62 59.5275Z" fill="#0C1027"/>
<path d="M62.2751 59.527V68.527C62.2751 68.527 51.7753 71.7395 48.7753 73.027C45.7753 74.3145 41.3502 70.6006 39.7752 67.027C38.0545 63.1228 39.645 58.7827 40.2752 57.527C40.9053 56.2714 41.9625 55.3853 43.7752 55.027C45.5878 54.6687 54.8551 57.9649 62.2751 59.527Z" fill="#0C1027"/>
<circle cx="76" cy="63" r="2" fill="#D9D9D9"/>
<circle cx="48" cy="63" r="2" fill="#D9D9D9"/>
<defs>
<linearGradient id="paint0_linear_2_33" x1="104" y1="75" x2="140.5" y2="127" gradientUnits="userSpaceOnUse">
<stop stop-color="#482FB4"/>
<stop offset="1" stop-color="#AD60D0"/>
</linearGradient>
<linearGradient id="paint1_linear_2_33" x1="25.5" y1="15.5" x2="113.5" y2="95.5" gradientUnits="userSpaceOnUse">
<stop stop-color="#482FB4"/>
<stop offset="1" stop-color="#AD60D0"/>
</linearGradient>
</defs>
</svg>
