<svg width="36" height="36" viewBox="0 0 36 36" fill="none" xmlns="http://www.w3.org/2000/svg">
<g clip-path="url(#clip0_15_14)">
<path d="M33.5358 29.4268C29.71 27.699 29.5645 20.2832 29.5617 20.096V15.1208C29.5617 10.3325 26.6357 6.21501 22.4777 4.46183C22.4688 2 20.4637 0 18.0001 0C15.5364 0 13.5314 2.00012 13.5224 4.46171C9.3646 6.21489 6.43854 10.3324 6.43854 15.1207V20.0959C6.43583 20.283 6.29019 27.6989 2.46436 29.4266C2.02853 29.6235 1.789 30.0979 1.88977 30.5655C1.99041 31.0331 2.40389 31.367 2.88218 31.367H12.581C12.7798 32.4608 13.297 33.4783 14.088 34.3025C15.1386 35.3971 16.528 35.9999 17.9999 35.9999C19.472 35.9999 20.8613 35.3971 21.9118 34.3025C22.7029 33.4782 23.2201 32.4606 23.4188 31.367H33.1176C33.5959 31.367 34.0093 31.0331 34.1101 30.5655C34.211 30.0979 33.9716 29.6236 33.5358 29.4268ZM28.4962 25.8741C28.8983 27.0934 29.4678 28.3179 30.2753 29.3368H5.72471C6.53213 28.318 7.1016 27.0936 7.50378 25.8741H28.4962ZM18.0001 2.0303C19.1145 2.0303 20.0567 2.77912 20.3516 3.79983C19.592 3.6423 18.8056 3.55924 18.0001 3.55924C17.1946 3.55924 16.4081 3.64224 15.6486 3.79983C15.9435 2.77918 16.8857 2.0303 18.0001 2.0303ZM8.46884 20.1022V15.1207C8.46884 9.86519 12.7445 5.58954 18.0001 5.58954C23.2557 5.58954 27.5313 9.86519 27.5313 15.1207V20.1104C27.5327 20.2632 27.5565 21.868 27.9609 23.8437H8.03901C8.44372 21.8662 8.4676 20.2584 8.46884 20.1022ZM18.0001 33.9698C16.4506 33.9698 15.0983 32.8526 14.6643 31.3671H21.3358C20.9017 32.8526 19.5497 33.9698 18.0001 33.9698Z" fill="white"/>
<circle cx="27" cy="9" r="4" fill="#FF0F0F"/>
</g>
<defs>
<clipPath id="clip0_15_14">
<rect width="36" height="36" fill="white"/>
</clipPath>
</defs>
</svg>
