<svg width="427" height="63" viewBox="0 0 427 63" fill="none" xmlns="http://www.w3.org/2000/svg">
<circle cx="213.5" cy="31.5" r="31" stroke="#B3B3B3"/>
<rect x="218" y="20" width="6" height="24" fill="white"/>
<rect x="218" y="20" width="6" height="24" fill="white"/>
<rect x="204" y="20" width="6" height="24" fill="white"/>
<rect x="204" y="20" width="6" height="24" fill="white"/>
<path d="M108 30L124 22V42L108 34V42H104V22H108V30Z" fill="#B3B3B3"/>
<path d="M320 30L304 22V42L320 34V42H324V22H320V30Z" fill="#B3B3B3"/>
<path d="M6.21103 27C4.23034 25 3.51135 24.9798 1.25899 24.5C-0.993364 24.0202 0.268885 22 1.25917 22C2.24945 22 4.72559 22 6.21103 23.5C7.69647 25 14.1345 30.5 17.1055 33C20.0766 35.5 22.0576 36 22.0576 36V33L28 37.5L22.0576 41V38C22.0576 38 18.5915 37.5 17.6009 36.5C17.6009 36.5 8.19172 29 6.21103 27Z" fill="#B3B3B3"/>
<path d="M9.26907 30.2242C9.17813 30.1626 9.0882 30.0882 9 30L9.26907 30.2242C10.7248 31.2112 12.4412 28.9412 11.5 28L17.5 33C15.5 32 14.5 33.5 15 35L9.26907 30.2242Z" fill="#282828"/>
<path d="M6.21103 36C4.23034 38 3.51135 38.0202 1.25899 38.5C-0.993364 38.9798 0.268885 41 1.25917 41C2.24945 41 4.72559 41 6.21103 39.5C7.69647 38 14.1345 32.5 17.1055 30C20.0766 27.5 22.0576 27 22.0576 27V30L28 25.5L22.0576 22V25C22.0576 25 18.5915 25.5 17.6009 26.5C17.6009 26.5 8.19172 34 6.21103 36Z" fill="#B3B3B3"/>
<path d="M400 34.4516C400 36.5161 403 36.5161 403 34.4516C403 34.4516 403 33.9355 403 29.2903C403 24.6452 402.5 25.1613 407 25.1613H418L418 27.2258L424 23.6129L418 20V22.0645H407C400 22.0645 400 22.0645 400 29.2903V34.4516Z" fill="#B3B3B3"/>
<path d="M427 27.5484C427 25.4839 424 25.4839 424 27.5484C424 27.5484 424 28.0645 424 32.7097C424 37.3548 424.5 36.8387 420 36.8387H409L409 34.7742L403 38.3871L409 42V39.9355H420C427 39.9355 427 39.9355 427 32.7097V27.5484Z" fill="#B3B3B3"/>
</svg>
